:SAMPLES-PER-SECOND 30
:FULLY-SPECIFIED
:DEGREES
243
root  34.81572369 36.49172745 -14.98242776 7.979355335 -6.02485323 3.951610565
lowerback  -6.883269787 -2.047739983 -1.824430466
upperback  -4.465501785 -2.149679899 -3.482270002
thorax  -0.8057780266 -0.8791540265 -2.698600054
lowerneck  -4.054009914 -14.64789963 -12.17150021
upperneck  12.95790005 -20.38920212 12.92129993
head  7.222340107 -9.539099693 4.141349792
lclavicle  0 -4.497500157e-015 -2.743230041e-014
lhumerus  -50.84980011 29.37450027 62.1473999
lradius  -2.057401616e-006 -6.507048965e-006 31.06150055
lwrist  4.824992743e-007 -3.790274832e-007 -27.59900093
lhand  -4.412428216e-031 -36.84429932 -10.50650024
lfingers  90 7.125020027 -90
lthumb  94.75432895 -25.34737606 100.9941235
rclavicle  0 -4.497500157e-015 -2.743230041e-014
rhumerus  -56.31140137 -29.78569984 2.899441719
rradius  -5.16745672e-007 2.214343908e-008 88.78410339
rwrist  -0.0001011603963 7.223922876e-005 173.5709839
rhand  -1.769298394e-031 3.723999977 -6.533070087
rfingers  -90 -7.125020027 -90
rthumb  -84.72635243 -9.357163753 -60.41590828
rfemur  -12.60132504 16.58262825 12.72065258
rtibia  -1.58625567 -1.160805106 21.81591606
rfoot  -0.05626274645 -22.21901321 -35.77232361
rtoes  3.820423852 19.64640163 -101.2337325
lfemur  -8.139865875 -17.10981369 -20.74292183
ltibia  2.234686852 -1.593828201 15.46361446
lfoot  1.081253648 -22.88710403 38.3136673
ltoes  -8.685055204 -18.08578589 -116.1998292
244
root  34.81543233 36.49156225 -14.98151013 7.978018761 -6.027853012 3.927708626
lowerback  -6.870570183 -2.058140039 -1.809249997
upperback  -4.463230133 -2.166199923 -3.465660095
thorax  -0.8205729723 -0.8879410028 -2.69039011
lowerneck  -4.20238018 -14.50030041 -12.14299965
upperneck  13.11209965 -20.17370224 12.83290005
head  7.256450176 -9.429570198 4.12842989
lclavicle  0 -4.497500157e-015 -2.743230041e-014
lhumerus  -50.88259888 29.39699745 62.13779831
lradius  -2.057401616e-006 -6.507048965e-006 31.06710052
lwrist  4.824992743e-007 -3.790274832e-007 -27.68320084
lhand  -4.408620093e-031 -36.77819824 -10.44270039
lfingers  90 7.125020027 -90
lthumb  94.71023339 -25.28705114 100.9178446
rclavicle  0 -4.497500157e-015 -2.743230041e-014
rhumerus  -57.18690109 -29.49200058 2.490298986
rradius  -5.16745672e-007 2.214343908e-008 89.7589035
rwrist  -0.0001011603963 0.0002791820734 172.8119812
rhand  -1.769276438e-031 3.713059902 -6.609200001
rfingers  -90 -7.125020027 -90
rthumb  -84.76703309 -9.290375165 -60.4328168
rfemur  -12.57385921 16.57551384 12.74692059
rtibia  -1.565244675 -1.145738363 21.78977966
rfoot  -0.04899935052 -22.22309113 -35.77397919
rtoes  3.814760155 19.64746023 -101.2168874
lfemur  -8.09724617 -17.10203362 -20.72872162
ltibia  2.243635178 -1.583325863 15.43177509
lfoot  1.074296236 -22.88169098 38.31723785
ltoes  -8.636013038 -18.10864396 -116.0419498
245
root  34.81593094 36.49208489 -14.98053994 7.97746563 -6.029530048 3.897612333
lowerback  -6.874070168 -2.063060045 -1.832270384
upperback  -4.453360081 -2.17234993 -3.455060005
thorax  -0.807273984 -0.8909739852 -2.667089939
lowerneck  -4.344890118 -14.37790012 -12.09619999
upperneck  13.25399971 -19.99329758 12.73970032
head  7.28801012 -9.337039948 4.107110023
lclavicle  0 -4.497500157e-015 -2.743230041e-014
lhumerus  -50.86650085 29.32740021 62.20119858
lradius  -2.057401616e-006 -6.507048965e-006 31.10319901
lwrist  4.824992743e-007 -3.790274832e-007 -27.5807991
lhand  -4.411482276e-031 -36.82789993 -10.42749977
lfingers  90 7.125020027 -90
lthumb  94.73009732 -25.27043971 100.9695475
rclavicle  0 -4.497500157e-015 -2.743230041e-014
rhumerus  -58.1393013 -29.33359909 2.053799629
rradius  -5.16745672e-007 2.214343908e-008 90.79579926
rwrist  -0.0001011603963 0.0004888910335 172.5070038
rhand  -1.7689683e-031 3.555949926 -6.662799835
rfingers  -90 -7.125020027 -90
rthumb  -84.83104712 -9.23476954 -60.59055663
rfemur  -12.57314587 16.64215279 12.76344204
rtibia  -1.545589805 -1.123018265 21.76636124
rfoot  -0.04767483473 -22.19719887 -35.83335495
rtoes  3.781161443 19.65370653 -101.1169754
lfemur  -8.150399208 -17.09791756 -20.66959381
ltibia  2.190590858 -1.586273193 15.50560284
lfoot  1.061076164 -22.9000206 38.28920746
ltoes  -8.623854512 -18.11428585 -116.002838
246
root  34.8141918 36.49205786 -14.9792949 7.978927135 -6.029777527 3.880656004
lowerback  -6.893809795 -2.068109989 -1.803760052
upperback  -4.448319912 -2.18027997 -3.453030109
thorax  -0.7924640179 -0.8958079815 -2.682149887
lowerneck  -4.551239967 -14.24520016 -11.90219975
upperneck  13.48130035 -19.78260231 12.44390011
head  7.317039967 -9.232729912 4.001669884
lclavicle  0 -4.497500157e-015 -2.743230041e-014
lhumerus  -50.85950089 29.30410004 62.2193985
lradius  -2.057401616e-006 -6.507048965e-006 31.14520073
lwrist  4.824992743e-007 -3.790274832e-007 -27.48390007
lhand  -4.41163801e-031 -36.83060074 -10.43150043
lfingers  90 7.125020027 -90
lthumb  94.73217371 -25.27425092 100.9727588
rclavicle  0 -4.497500157e-015 -2.743230041e-014
rhumerus  -59.12049866 -29.07589912 1.538441539
rradius  -5.16745672e-007 2.214343908e-008 91.88600159
rwrist  -0.0001011603963 0.0007012152928 172.2730255
rhand  -1.769033692e-031 3.589869976 -6.454050064
rfingers  -90 -7.125020027 -90
rthumb  -84.71902335 -9.418458689 -60.54056275
rfemur  -12.56510735 16.64876556 12.77948284
rtibia  -1.532851219 -1.113052607 21.76025772
rfoot  -0.04895478487 -22.20538902 -35.8428688
rtoes  3.774924895 19.65485963 -101.0984333
lfemur  -8.155096054 -17.05293274 -20.63752365
ltibia  2.175012589 -1.560425043 15.51724815
lfoot  1.051088929 -22.95322227 38.24880981
ltoes  -8.648619581 -18.10278367 -116.0825151
247
root  34.81270798 36.49240329 -14.97841482 7.984829426 -6.042853355 3.875695944
lowerback  -6.891880512 -2.077100039 -1.790419936
upperback  -4.449669838 -2.194659948 -3.434299946
thorax  -0.7951610088 -0.9036909938 -2.67098999
lowerneck  -4.579490185 -14.12510014 -11.90909958
upperneck  13.49260044 -19.61379814 12.45330048
head  7.30573988 -9.150690079 4.027910233
lclavicle  0 -4.497500157e-015 -2.743230041e-014
lhumerus  -50.88809967 29.37540054 62.15919876
lradius  -2.057401616e-006 -6.507048965e-006 31.15950012
lwrist  4.824992743e-007 -3.790274832e-007 -27.45940018
lhand  -4.41239938e-031 -36.84379959 -10.32059956
lfingers  90 7.125020027 -90
lthumb  94.71496133 -25.16491572 100.9769476
rclavicle  0 -4.497500157e-015 -2.743230041e-014
rhumerus  -60.07060242 -28.93570137 1.029033065
rradius  -5.16745672e-007 2.214343908e-008 92.82319641
rwrist  -0.0001011603963 0.0009160037735 172.0820618
rhand  -0 3.52218008 -6.354489803
rfingers  -90 -7.125020027 -90
rthumb  -84.68567188 -9.501512572 -60.59862786
rfemur  -12.58226109 16.64949226 12.78333759
rtibia  -1.528218031 -1.103729844 21.77993202
rfoot  -0.05112235248 -22.20916176 -35.82998276
rtoes  3.784653718 19.65305997 -101.1273589
lfemur  -8.110187531 -17.02033043 -20.64832687
ltibia  2.206639051 -1.532501221 15.45065594
lfoot  1.057216763 -22.97380257 38.2710495
ltoes  -8.662319993 -18.09640273 -116.1266147
